<?xml version="1.0" standalone="no"?>
<!DOCTYPE svg PUBLIC "-//W3C//DTD SVG 20010904//EN"
 "http://www.w3.org/TR/2001/REC-SVG-20010904/DTD/svg10.dtd">
<svg version="1.0" xmlns="http://www.w3.org/2000/svg"
 width="70.000000pt" height="70.000000pt" viewBox="0 0 70.000000 70.000000"
 preserveAspectRatio="xMidYMid meet">
<metadata>
Created by potrace 1.11, written by Peter Selinger 2001-2013
</metadata>
<g transform="translate(0.000000,70.000000) scale(0.100000,-0.100000)"
fill="#000000" stroke="none">
<path d="M313 615 c-45 -19 -61 -55 -39 -86 10 -15 16 -18 16 -9 0 11 11 15
38 15 20 1 44 4 54 9 12 5 18 2 23 -14 10 -30 27 -10 23 26 -2 19 -14 36 -37
51 -39 27 -36 26 -78 8z"/>
<path d="M238 347 c-20 -7 -45 -23 -56 -37 l-20 -25 78 3 78 3 -13 32 c-16 37
-19 39 -67 24z m61 -39 c1 -5 -3 -8 -9 -8 -5 0 -10 12 -9 28 0 24 1 25 9 7 5
-11 9 -23 9 -27z"/>
<path d="M400 335 c-6 -16 -13 -31 -15 -36 -3 -4 30 -9 73 -11 l79 -3 -20 26
c-10 15 -31 29 -46 32 -14 3 -34 9 -43 12 -13 5 -20 0 -28 -20z m16 -33 c-11
-10 -15 4 -8 28 l7 25 3 -23 c2 -13 1 -26 -2 -30z"/>
<path d="M108 223 c-21 -28 -38 -57 -38 -65 0 -8 15 -32 34 -54 43 -49 48 -40
44 82 l-3 89 -37 -52z"/>
<path d="M550 176 c0 -52 4 -97 9 -101 11 -6 71 64 71 83 0 14 -67 112 -76
112 -2 0 -4 -42 -4 -94z"/>
<path d="M292 33 c32 -2 84 -2 115 0 32 2 6 3 -57 3 -63 0 -89 -1 -58 -3z"/>
</g>
</svg>
